<?xml version="1.0" standalone="no"?><!DOCTYPE svg PUBLIC "-//W3C//DTD SVG 1.1//EN" "http://www.w3.org/Graphics/SVG/1.1/DTD/svg11.dtd"><svg class="icon" width="200px" height="200.00px" viewBox="0 0 1024 1024" version="1.1" xmlns="http://www.w3.org/2000/svg"><path d="M512 0c282.76736 0 512 229.23264 512 512s-229.23264 512-512 512S0 794.76736 0 512 229.23264 0 512 0z" fill="#3DB39E" /><path d="M491.52 256h256a20.48 20.48 0 0 1 20.48 20.48v501.76a20.48 20.48 0 0 1-20.48 20.48H491.52a20.48 20.48 0 0 1-20.48-20.48V276.48a20.48 20.48 0 0 1 20.48-20.48z m-307.2 71.68h460.8a20.48 20.48 0 0 1 20.48 20.48v389.12a20.48 20.48 0 0 1-20.48 20.48H184.32a20.48 20.48 0 0 1-20.48-20.48V348.16a20.48 20.48 0 0 1 20.48-20.48z" fill="#37A18E" /><path d="M204.8 307.2h460.8a20.48 20.48 0 0 1 20.48 20.48v389.12a20.48 20.48 0 0 1-20.48 20.48H204.8a20.48 20.48 0 0 1-20.48-20.48V327.68a20.48 20.48 0 0 1 20.48-20.48z" fill="#E6E5E3" /><path d="M665.6 307.2H471.04v430.08h194.56a20.48 20.48 0 0 0 20.48-20.48V327.68a20.48 20.48 0 0 0-20.48-20.48z" fill="#CFCECC" /><path d="M240.64 327.68a15.36 15.36 0 1 0 0.01024 30.73024A15.36 15.36 0 0 0 240.64 327.68z m51.2 0a15.36 15.36 0 1 0 0.01024 30.73024A15.36 15.36 0 0 0 291.84 327.68z m51.2 0a15.36 15.36 0 1 0 0.01024 30.73024A15.36 15.36 0 0 0 343.04 327.68z" fill="#C6C5C3" /><path d="M225.28 378.88h368.64v317.44H225.28V378.88z" fill="#324D5B" /><path d="M256 409.6h102.4v256H256V409.6z" fill="#91D8F0" /><path d="M471.04 378.88h122.88v317.44H471.04z" fill="#2D4552" /><path d="M389.12 409.6h102.4v256H389.12V409.6z" fill="#EFC75E" /><path d="M471.04 409.6h20.48v256h-20.48z" fill="#D7B354" /><path d="M512 235.52h256a20.48 20.48 0 0 1 20.48 20.48v501.76a20.48 20.48 0 0 1-20.48 20.48H512a20.48 20.48 0 0 1-20.48-20.48V256a20.48 20.48 0 0 1 20.48-20.48z" fill="#F2F1EF" /><path d="M645.12 716.8a20.48 20.48 0 1 0 0.01024 40.97024A20.48 20.48 0 0 0 645.12 716.8z m30.72-450.56h-61.44a10.24 10.24 0 1 0 0 20.48h61.44a10.24 10.24 0 1 0 0-20.48z" fill="#CECDCB" /><path d="M512 317.44h256v378.88H512V317.44z" fill="#324D5B" /><path d="M542.72 522.24h194.56v143.36H542.72V522.24z" fill="#EFC75E" /><path d="M542.72 348.16h194.56v143.36H542.72V348.16z" fill="#91D8F0" /></svg>