<?xml version="1.0" standalone="no"?><!DOCTYPE svg PUBLIC "-//W3C//DTD SVG 1.1//EN" "http://www.w3.org/Graphics/SVG/1.1/DTD/svg11.dtd"><svg class="icon" width="200px" height="200.00px" viewBox="0 0 1024 1024" version="1.1" xmlns="http://www.w3.org/2000/svg"><path d="M512 0c282.76736 0 512 229.23264 512 512s-229.23264 512-512 512S0 794.76736 0 512 229.23264 0 512 0z" fill="#324D5B" /><path d="M942.08 174.08a81.92 81.92 0 1 1 0 163.84 81.92 81.92 0 0 1 0-163.84z" fill="#82D2ED" /><path d="M844.8 471.06048c-3.06176 27.62752-18.432 42.99776-46.08 46.08 27.648 3.06176 43.01824 18.432 46.08 46.06976 3.08224-27.63776 18.44224-43.008 46.09024-46.06976-27.648-3.08224-43.008-18.45248-46.09024-46.08z m-122.88-337.92c-3.06176 27.62752-18.432 42.99776-46.08 46.08 27.648 3.06176 43.01824 18.432 46.08 46.06976 3.08224-27.63776 18.44224-43.008 46.09024-46.06976-27.648-3.08224-43.008-18.45248-46.09024-46.08z" fill="#5B717C" /><path d="M880.65024 768.03072c-6.15424 55.26528-36.87424 86.00576-92.17024 92.16 55.296 6.144 86.016 36.87424 92.17024 92.16 6.15424-55.28576 36.87424-86.016 92.17024-92.16-55.296-6.15424-86.016-36.89472-92.17024-92.16z m-450.56-675.84c-4.78208 42.98752-28.672 66.88768-71.68 71.68 43.008 4.77184 66.90816 28.672 71.68 71.68 4.77184-43.008 28.672-66.90816 71.68-71.68-43.008-4.79232-66.90816-28.69248-71.68-71.68z" fill="#EFC75E" /><path d="M727.07072 697.58976l-6.67648 6.67648-60.08832 60.14976-8.9088 8.91904-137.99424 138.1376-6.68672-6.68672h-0.01024l-6.66624-6.67648-73.45152-73.5232-6.67648-6.67648 94.40256-94.50496-213.67808-213.66784-94.44352 94.53568-13.35296-13.37344-73.45152-73.5232-6.67648-6.67648 200.31488-200.51968 13.35296-13.3632 13.35296 13.3632 80.128 80.20992-6.68672 6.68672-63.78496 63.83616-9.66656 9.6768-24.66816 24.68864 213.67808 213.67808 91.48416-91.57632 13.35296-13.3632 13.3632 13.3632 80.13824 80.20992zM206.19264 577.536l53.41184-53.47328-26.70592-26.73664-53.42208 53.47328 26.71616 26.73664z m-40.05888-40.11008l53.42208-53.46304-26.70592-26.73664-53.42208 53.47328 26.70592 26.7264z m40.05888-93.56288l26.70592 26.73664 53.41184-53.47328-26.70592-26.73664-53.41184 53.47328z m120.19712-120.30976l-53.42208 53.47328 26.70592 26.73664 53.42208-53.47328-26.70592-26.73664z m13.35296 120.30976l53.42208-53.47328-26.70592-26.73664-53.42208 53.47328 26.70592 26.73664z m-13.35296 13.3632l-26.70592-26.73664-53.41184 53.47328 26.70592 26.73664 53.41184-53.47328z m373.97504 240.36352l-26.70592-26.7264-53.42208 53.46304 26.70592 26.73664 53.42208-53.47328z m-66.78528 66.82624l-26.69568-26.71616-53.42208 53.46304 26.69568 26.73664 53.42208-53.48352zM513.40288 884.736l53.41184-53.48352-26.70592-26.7264-53.41184 53.47328 26.70592 26.73664z m-66.78528-66.83648l26.70592 26.7264 53.42208-53.47328-26.70592-26.73664-53.42208 53.48352z m66.78528-66.83648l26.69568 26.73664 53.42208-53.48352-26.70592-26.7264-53.41184 53.47328z m66.75456-66.84672l26.71616 26.73664 53.42208-53.48352-26.71616-26.7264-53.42208 53.47328z" fill="#EBEDEE" /><path d="M634.88 358.4a30.72 30.72 0 1 1 0 61.44 30.72 30.72 0 0 1 0-61.44z" fill="#3CAC99" /><path d="M602.50112 576.4096l-85.71904 85.79072-102.8608 102.94272c-43.79648 43.8272-114.0224 44.61568-156.84608 1.76128S215.04 653.76256 258.83648 609.91488l89.87648-89.93792v-0.01024l98.69312-98.77504a39.86432 39.86432 0 0 1 56.40192 0l98.69312 98.77504a39.936 39.936 0 0 1 0 56.44288zM716.6976 463.88224c-39.45472 39.38304-106.36288 36.06528-149.6576-7.168-43.3152-43.23328-46.6432-110.0288-7.18848-149.41184L716.6976 463.88224z" fill="#EBEDEE" /><path d="M479.50848 544.36864a40.81664 40.81664 0 0 1 0 57.92768 41.33888 41.33888 0 0 1-58.23488 0c-16.0768-15.99488-16.0768-41.94304 0-57.92768s42.15808-15.98464 58.23488 0z m97.77152-138.8544c-21.25824-21.21728-32.8192-48.10752-34.48832-74.63936-19.85536 39.03488-11.30496 90.35776 24.24832 125.83936 43.30496 43.24352 110.21312 46.55104 149.6576 7.168l-28.27264-28.22144c-36.59776 11.29472-79.96416 0.98304-111.14496-30.14656z" fill="#D3D5D6" /><path d="M421.28384 564.84864a41.33888 41.33888 0 0 1 58.23488 0c5.38624 5.35552 8.8064 11.86816 10.58816 18.71872a40.63232 40.63232 0 0 0-10.58816-39.19872 41.33888 41.33888 0 0 0-58.23488 0 40.63232 40.63232 0 0 0-10.58816 39.19872 40.38656 40.38656 0 0 1 10.58816-18.71872z" fill="#BDBFC0" /><path d="M450.39616 532.3776c10.53696 0 21.07392 4.00384 29.11232 11.99104a40.81664 40.81664 0 0 1 0 57.92768c-8.0384 7.99744-18.57536 11.99104-29.11232 11.99104s-21.07392-3.9936-29.11232-11.99104a40.81664 40.81664 0 0 1 0-57.92768 41.18528 41.18528 0 0 1 29.11232-11.99104m0-15.36c-15.08352 0-29.26592 5.8368-39.94624 16.45568a55.81824 55.81824 0 0 0-16.5888 39.84384c0 15.07328 5.888 29.22496 16.5888 39.87456 10.68032 10.61888 24.86272 16.45568 39.94624 16.45568s29.26592-5.8368 39.94624-16.45568c10.7008-10.6496 16.5888-24.81152 16.5888-39.87456s-5.888-29.20448-16.5888-39.84384a56.32 56.32 0 0 0-39.94624-16.45568z" fill="#324D5B" /><path d="M274.61632 594.13504l-15.77984 15.79008-2.68288 2.95936L411.0336 767.76448l2.88768-2.62144 15.85152-15.872-155.15648-155.136z" fill="#3DB39E" /><path d="M537.26208 621.24032L434.40128 724.18304c-43.79648 43.8272-114.0224 44.61568-156.84608 1.76128-28.416-28.43648-37.50912-68.92544-27.6992-105.7792-34.62144 43.93984-32.43008 107.06944 7.2192 146.7392 42.82368 42.86464 113.0496 42.06592 156.84608-1.76128l102.85056-102.94272 85.71904-85.79072a39.59808 39.59808 0 0 0 11.33568-31.80544l-76.56448 76.63616z" fill="#D3D5D6" /><path d="M418.14016 737.6384c-7.74144 5.3248-15.99488 9.5232-24.5248 12.70784l17.41824 17.408 2.88768-2.62144 15.85152-15.872-11.63264-11.6224z" fill="#37A18E" /><path d="M962.56 307.2a81.92 81.92 0 0 1-81.92-81.92c0-10.16832 1.93536-19.8656 5.33504-28.84608A81.5616 81.5616 0 0 0 860.16 256a81.92 81.92 0 0 0 81.92 81.92c35.072 0 64.91136-22.07744 76.58496-53.06368A81.53088 81.53088 0 0 1 962.56 307.2z" fill="#6FB3CA" /></svg>