<?xml version="1.0" standalone="no"?><!DOCTYPE svg PUBLIC "-//W3C//DTD SVG 1.1//EN" "http://www.w3.org/Graphics/SVG/1.1/DTD/svg11.dtd"><svg class="icon" width="200px" height="200.00px" viewBox="0 0 1024 1024" version="1.1" xmlns="http://www.w3.org/2000/svg"><path d="M512 0c282.76736 0 512 229.23264 512 512s-229.23264 512-512 512S0 794.76736 0 512 229.23264 0 512 0z" fill="#EFC75E" /><path d="M296.96 348.16h430.08c90.48064 0 163.84 73.35936 163.84 163.84 0 90.49088-73.35936 163.84-163.84 163.84H296.96c-90.48064 0-163.84-73.34912-163.84-163.84 0-90.48064 73.35936-163.84 163.84-163.84z" fill="#324D5B" /><path d="M286.72 399.36c67.86048 0 122.88 55.01952 122.88 122.88s-55.01952 122.88-122.88 122.88-122.88-55.01952-122.88-122.88 55.01952-122.88 122.88-122.88z" fill="#2D4653" /><path d="M296.96 389.12c67.86048 0 122.88 55.01952 122.88 122.88s-55.01952 122.88-122.88 122.88-122.88-55.01952-122.88-122.88 55.01952-122.88 122.88-122.88z" fill="#3DB39E" /><path d="M261.12 496.64a20.48 20.48 0 1 0 0.01024 40.97024A20.48 20.48 0 0 0 261.12 496.64z m61.44 0a20.48 20.48 0 1 0 0.01024 40.97024A20.48 20.48 0 0 0 322.56 496.64z" fill="#37A390" /><path d="M568.38144 450.39616c-33.35168 0-56.22784 26.7776-56.22784 61.60384 0 34.65216 23.05024 61.60384 56.22784 61.60384 33.49504 0 56.2176-26.95168 56.2176-61.60384 0-33.97632-23.37792-61.60384-56.2176-61.60384z m0 100.10624c-20.75648 0-30.74048-18.08384-30.74048-38.5024 0-20.25472 10.30144-38.5024 30.74048-38.5024 20.41856 0 30.72 18.24768 30.72 38.5024 0 20.41856-9.97376 38.5024-30.72 38.5024z m166.58432-100.08576c-7.24992 0-12.6464 4.77184-12.6464 13.27104v64.29696h-0.33792l-53.46304-71.94624c-2.19136-3.072-7.424-5.62176-10.61888-5.62176-7.26016 0-12.6464 4.77184-12.6464 13.27104v96.62464c0 8.50944 5.38624 13.27104 12.6464 13.27104 7.24992 0 12.63616-4.7616 12.63616-13.27104v-63.44704h0.33792l53.46304 71.10656c2.36544 3.06176 7.43424 5.61152 10.62912 5.61152 7.24992 0 12.6464-4.7616 12.6464-13.27104v-96.62464c0.01024-8.4992-5.39648-13.27104-12.6464-13.27104z" fill="#F2F1EF" /><path d="M266.24 491.52a20.48 20.48 0 1 0 0.01024 40.97024A20.48 20.48 0 0 0 266.24 491.52z m61.44 0a20.48 20.48 0 1 0 0.01024 40.97024A20.48 20.48 0 0 0 327.68 491.52z" fill="#FFFFFF" /><path d="M317.44 624.64c-67.86048 0-122.88-55.01952-122.88-122.88 0-44.05248 23.25504-82.57536 58.09152-104.27392C206.71488 415.2832 174.08 459.776 174.08 512c0 67.86048 55.01952 122.88 122.88 122.88 23.808 0 45.95712-6.88128 64.78848-18.60608-13.76256 5.3248-28.672 8.36608-44.30848 8.36608z" fill="#369D8B" /></svg>