<?xml version="1.0" standalone="no"?><!DOCTYPE svg PUBLIC "-//W3C//DTD SVG 1.1//EN" "http://www.w3.org/Graphics/SVG/1.1/DTD/svg11.dtd"><svg class="icon" width="200px" height="200.00px" viewBox="0 0 1024 1024" version="1.1" xmlns="http://www.w3.org/2000/svg"><path d="M512-0.01024c282.76736 0 512 229.23264 512 512s-229.23264 512-512 512-512-229.23264-512-512 229.23264-512 512-512z" fill="#2EA9D3" /><path d="M327.68 184.30976h368.64a61.44 61.44 0 0 1 61.44 61.44v716.8A61.45024 61.45024 0 0 1 696.32 1024H327.68c-33.92512 0-61.44-27.52512-61.44-61.45024v-716.8a61.44 61.44 0 0 1 61.44-61.44z" fill="#EFC75E" /><path d="M327.4752 1023.98976h97.78176l86.7328-61.44v-716.8L266.24 419.84v542.72a61.44 61.44 0 0 0 61.2352 61.42976z" fill="#D7B354" /><path d="M337.92 931.82976A20.48 20.48 0 1 0 337.93024 972.8 20.48 20.48 0 0 0 337.92 931.84z m348.16 0A20.48 20.48 0 1 0 686.09024 972.8 20.48 20.48 0 0 0 686.08 931.84z m-348.16-696.32A20.48 20.48 0 1 0 337.93024 276.48 20.48 20.48 0 0 0 337.92 235.52z m348.16 30.72a20.48 20.48 0 1 0-0.01024-40.97024A20.48 20.48 0 0 0 686.08 266.22976z" fill="#F5DD9E" /><path d="M624.64 532.46976H399.36a10.24 10.24 0 0 0 0 20.48h225.28a10.24 10.24 0 1 0 0-20.48z m0 61.44H399.36a10.24 10.24 0 0 0 0 20.48h225.28a10.24 10.24 0 1 0 0-20.48z m0 61.44H399.36a10.24 10.24 0 0 0 0 20.48h225.28a10.24 10.24 0 1 0 0-20.48z m0 61.44H399.36a10.24 10.24 0 0 0 0 20.48h225.28a10.24 10.24 0 1 0 0-20.48z m-225.28-348.16h225.28a10.24 10.24 0 1 0 0-20.48H399.36a10.24 10.24 0 0 0 0 20.48z m225.28 40.96H399.36a10.24 10.24 0 0 0 0 20.48h225.28a10.24 10.24 0 1 0 0-20.48z m0 61.44H399.36a10.24 10.24 0 0 0 0 20.48h225.28a10.24 10.24 0 1 0 0-20.48z" fill="#D7B354" /><path d="M399.36 491.50976h112.64v-20.48H399.36a10.24 10.24 0 0 0 0 20.48z m112.64 225.28H399.36a10.24 10.24 0 0 0 0 20.48h112.64v-20.48z m-112.64-286.72h112.64v-20.48H399.36a10.24 10.24 0 0 0 0 20.48z m0 245.76h112.64v-20.48H399.36a10.24 10.24 0 0 0 0 20.48z m-10.24-317.44a10.24 10.24 0 0 0 10.24 10.24h112.64v-20.48H399.36a10.24 10.24 0 0 0-10.24 10.24z m10.24 194.56h112.64v-20.48H399.36a10.24 10.24 0 0 0 0 20.48z m0 61.44h112.64v-20.48H399.36a10.24 10.24 0 0 0 0 20.48z" fill="#C1A14B" /><path d="M440.36096 714.0352V317.5424a71.68 71.68 0 0 1 71.72096-71.65952 71.68 71.68 0 0 1 71.70048 71.65952v396.48256c0 15.38048 6.33856 29.9008 16.98816 40.99072a122.14272 122.14272 0 0 1 34.23232 83.78368c0.59392 65.49504-52.64384 121.38496-118.13888 123.88352-70.07232 2.65216-127.72352-53.32992-127.72352-122.75712 0-33.01376 13.07648-62.91456 34.29376-84.96128 10.63936-11.06944 16.92672-25.57952 16.92672-40.92928z" fill="#F2F1EF" /><path d="M460.8 751.08352V348.14976h102.4v402.93376c30.57664 17.7152 51.2 50.70848 51.2 88.58624 0 56.54528-45.84448 102.4-102.4 102.4s-102.4-45.85472-102.4-102.4c0-37.87776 20.62336-70.87104 51.2-88.58624z" fill="#E2574C" /><path d="M512 327.66976c28.28288 0 51.2 9.17504 51.2 20.48s-22.91712 20.48-51.2 20.48c-28.27264 0-51.2-9.17504-51.2-20.48s22.92736-20.48 51.2-20.48z" fill="#CB4E44" /><path d="M491.52 839.68a20.48 20.48 0 1 0 0.01024 40.97024A20.48 20.48 0 0 0 491.52 839.68z m20.48-240.64a15.36 15.36 0 1 0 30.73024-0.01024A15.36 15.36 0 0 0 512 599.04zM501.76 532.48a20.48 20.48 0 1 0 0-40.96 20.48 20.48 0 0 0 0 40.96z m5.12 143.36a15.36 15.36 0 1 0 0 30.72 15.36 15.36 0 0 0 0-30.72z m30.72 112.64a15.36 15.36 0 1 0 0.01024 30.73024A15.36 15.36 0 0 0 537.6 788.48z" fill="#EB8A82" /><path d="M696.32 184.30976H327.68a61.44 61.44 0 0 0-61.44 61.44v30.72a61.44 61.44 0 0 1 61.44-61.44h368.64a61.44 61.44 0 0 1 61.44 61.44v-30.72a61.44 61.44 0 0 0-61.44-61.44z" fill="#D4B25A" /></svg>