<?xml version="1.0" standalone="no"?><!DOCTYPE svg PUBLIC "-//W3C//DTD SVG 1.1//EN" "http://www.w3.org/Graphics/SVG/1.1/DTD/svg11.dtd"><svg class="icon" width="200px" height="200.00px" viewBox="0 0 1024 1024" version="1.1" xmlns="http://www.w3.org/2000/svg"><path d="M512 0c282.76736 0 512 229.23264 512 512s-229.23264 512-512 512S0 794.76736 0 512 229.23264 0 512 0z" fill="#3DB39E" /><path d="M855.33696 132.20864A1162.0352 1162.0352 0 0 1 587.18208 163.84H136.73472C51.92704 255.20128 0 377.50784 0 512c0 155.78112 69.66272 295.20896 179.43552 389.12h407.74656c76.93312 0 153.46688 7.8848 228.61824 22.96832C942.06976 830.84288 1024 681.0112 1024 512c0-150.66112-65.08544-286.09536-168.66304-379.79136z" fill="#37A18E" /><path d="M836.7616 116.19328A1162.22976 1162.22976 0 0 1 587.18208 143.36H156.88704C60.23168 236.4928 0 367.17568 0 512c0 144.83456 60.23168 275.5072 156.88704 368.64h430.29504c84.08064 0 167.75168 9.17504 249.57952 27.16672C951.07072 813.90592 1024 671.47776 1024 512s-72.92928-301.90592-187.2384-395.80672z" fill="#F1C8AF" /><path d="M587.18208 192.3584c98.57024 0 196.58752-12.61568 291.72736-37.29408a514.8672 514.8672 0 0 0-42.14784-38.87104A1162.22976 1162.22976 0 0 1 587.18208 143.36H156.88704a515.64544 515.64544 0 0 0-44.71808 48.9984h475.01312z" fill="#F5D9C8" /><path d="M348.16 880.41472h239.02208c22.77376 0 45.48608 0.91136 68.17792 2.24256V141.08672a1172.992 1172.992 0 0 1-68.17792 2.23232H348.16v737.09568z" fill="#324D5B" /><path d="M491.52 808.96c-164.01408 0-296.96-132.94592-296.96-296.96a295.84384 295.84384 0 0 1 76.99456-199.48544C211.68128 366.83776 174.08 445.26592 174.08 532.48c0 164.01408 132.94592 296.96 296.96 296.96 87.22432 0 165.64224-37.60128 219.96544-97.47456A295.8336 295.8336 0 0 1 491.52 808.96z" fill="#CDAA95" /><path d="M348.16 772.07552v30.73024A295.8336 295.8336 0 0 0 471.04 829.44a295.61856 295.61856 0 0 0 184.32-64.2048v-5.62176A295.424 295.424 0 0 1 491.52 808.96a295.56736 295.56736 0 0 1-143.36-36.88448z" fill="#2B424E" /><path d="M778.24 460.8h30.72a10.24 10.24 0 0 1 10.24 10.24v81.92a10.24 10.24 0 0 1-10.24 10.24h-30.72V460.8z" fill="#D9D9D9" /><path d="M491.52 215.04c164.01408 0 296.96 132.95616 296.96 296.96 0 164.01408-132.94592 296.96-296.96 296.96S194.56 676.01408 194.56 512c0-164.00384 132.94592-296.96 296.96-296.96z" fill="#DADFE1" /><path d="M491.52 256c141.38368 0 256 114.61632 256 256S632.90368 768 491.52 768 235.52 653.38368 235.52 512s114.61632-256 256-256z" fill="#324D5B" /><path d="M667.33056 326.01088C621.45536 282.64448 559.616 256 491.52 256c-141.38368 0-256 114.61632-256 256 0 68.096 26.64448 129.93536 70.01088 175.81056l361.79968-361.79968z" fill="#425B68" /><path d="M449.03424 336.34304c15.19616-14.29504 30.26944-8.04864 42.3424 2.1504 12.07296-10.19904 27.02336-16.55808 42.3424-2.1504 11.93984 11.23328 12.01152 29.26592 0 40.43776a35208.22272 35208.22272 0 0 1-36.16768 30.5664 9.5232 9.5232 0 0 1-12.12416 0.02048c-5.53984-4.62848-16.13824-13.52704-36.39296-30.58688-12.01152-11.17184-11.95008-29.21472 0-40.43776z" fill="#B4615E" /><path d="M440.32 450.56h102.4a10.24 10.24 0 0 1 10.24 10.24v20.48a10.24 10.24 0 0 1-10.24 10.24H440.32a10.24 10.24 0 0 1-10.24-10.24v-20.48a10.24 10.24 0 0 1 10.24-10.24z" fill="#5B717C" /><path d="M542.72 450.56H440.32a10.24 10.24 0 0 0-10.24 10.24v20.48a10.24 10.24 0 0 0 10.24 10.24h61.50144l40.94976-40.94976L542.72 450.56z" fill="#687C86" /><path d="M716.1344 634.88a256 256 0 0 0 10.02496-20.48H570.66496L552.96 557.056h-13.64992l-27.56608 104.21248L477.87008 542.72h-13.66016l-28.32384 107.0592L423.24992 614.4H256.88064c3.05152 6.99392 6.37952 13.83424 10.02496 20.48h149.58592L430.08 671.744h13.64992l27.56608-103.8848L504.85248 686.08h14.29504l27.89376-102.93248L563.2 634.48064V634.88h152.9344z" fill="#38807D" /><path d="M358.46144 634.88l20.48-20.48H256.94208l0.43008 0.99328c2.6624 6.02112 5.55008 11.89888 8.6528 17.67424l1.00352 1.82272h91.43296z" fill="#488A87" /><path d="M348.16 143.36v48.9984h239.02208c22.77376 0 45.48608-0.91136 68.17792-2.2528V141.1072a1132.16512 1132.16512 0 0 1-56.24832 1.9968L587.18208 143.36H348.16z" fill="#516873" /><path d="M491.52 256c-73.29792 0-139.34592 30.85312-186.01984 80.22016C351.36512 292.87424 413.19424 266.24 481.28 266.24c141.38368 0 256 114.61632 256 256a255.0784 255.0784 0 0 1-69.98016 175.77984C716.66688 651.34592 747.52 585.29792 747.52 512c0-141.38368-114.61632-256-256-256z" fill="#2B424D" /><path d="M474.10176 256.65536c-3.10272 0.21504-6.21568 0.41984-9.29792 0.73728l-4.47488 0.57344c-2.88768 0.34816-5.77536 0.68608-8.63232 1.13664l-4.41344 0.78848-8.4992 1.57696-4.15744 0.96256c-2.8672 0.64512-5.7344 1.30048-8.56064 2.048l-3.77856 1.0752c-2.92864 0.8192-5.8368 1.65888-8.72448 2.57024l-3.35872 1.13664c-2.99008 1.00352-5.95968 2.02752-8.89856 3.13344l-2.9184 1.14688c-3.05152 1.19808-6.08256 2.41664-9.07264 3.72736l-2.5088 1.1264c-3.10272 1.39264-6.18496 2.82624-9.20576 4.34176l-2.07872 1.06496c-3.15392 1.60768-6.26688 3.26656-9.34912 4.99712l-1.6384 0.94208c-3.18464 1.82272-6.33856 3.70688-9.44128 5.67296l-1.25952 0.80896c-3.20512 2.05824-6.37952 4.16768-9.49248 6.36928l-0.86016 0.6144c-3.21536 2.29376-6.38976 4.63872-9.48224 7.0656l-0.5632 0.44032c-3.19488 2.51904-6.31808 5.09952-9.39008 7.75168l-0.28672 0.256c-3.14368 2.73408-6.21568 5.53984-9.22624 8.41728l-0.08192 0.08192c-3.05152 2.92864-6.03136 5.92896-8.93952 9.00096C351.36512 292.87424 413.19424 266.24 481.28 266.24c68.096 0 129.93536 26.64448 175.81056 70.01088l10.24-10.24-0.0512-0.04096c-2.80576-2.6624-5.6832-5.25312-8.61184-7.7824l-0.22528-0.2048a271.18592 271.18592 0 0 0-8.8064-7.24992l-0.4608-0.3584a239.3088 239.3088 0 0 0-8.94976-6.69696l-0.67584-0.49152a267.25376 267.25376 0 0 0-9.00096-6.11328l-1.0752-0.68608a264.64256 264.64256 0 0 0-8.94976-5.48864l-1.4848-0.84992a263.44448 263.44448 0 0 0-8.84736-4.88448l-1.95584-1.00352a244.9408 244.9408 0 0 0-8.704-4.28032l-2.43712-1.09568a231.94624 231.94624 0 0 0-8.50944-3.69664l-2.97984-1.1776a274.80064 274.80064 0 0 0-8.26368-3.13344l-3.57376-1.21856-7.94624-2.58048-4.22912-1.20832-7.53664-2.05824-4.97664-1.14688-7.0656-1.57696-5.71392-1.024-6.59456-1.13664-6.61504-0.83968-5.89824-0.7168-7.99744-0.6144-4.74112-0.34816a254.30016 254.30016 0 0 0-26.368 0.0512l-3.98336 0.29696z" fill="#384D59" /></svg>